# xmcd CD database file
#
# Track frame offsets:
#	150
#	24025
#	45938
#	64065
#	91233
#	100340
#	109570
#	113433
#	142868
#	153203
#	173255
#	200028
#
# Disc length: 3042 seconds
#
# Revision: 0
# Processed by: cddbd v1.5.1PL0 Copyright (c) Steve Scherf et al.
# Submitted via: CDex 1.51
#
DISCID=7e0be00c
DTITLE=Billy Cobham - Powerplay
DYEAR=1986
DGENRE=Jazz
TTITLE0=Times Of My Life
TTITLE1=Zanzibar Breeze
TTITLE2=Radioactive
TTITLE3=A Light Shines In Your Eyes
TTITLE4=The Foundation
TTITLE5=6b. Dance of the Blue Men/The Nomands
TTITLE6=The Debate
TTITLE7=The Conflict
TTITLE8=The Little One
TTITLE9=The Promise...Unity 
TTITLE10=Desiccated Coconuts
TTITLE11=Tinseltown
EXTD=YEAR: 1986
EXTT0=
EXTT1=
EXTT2=
EXTT3=
EXTT4=
EXTT5=
EXTT6=
EXTT7=
EXTT8=
EXTT9=
EXTT10=
EXTT11=
PLAYORDER=
